<svg xmlns="http://www.w3.org/2000/svg" width="368" height="148" fill="none"><g filter="url(#a)"><path fill="#FCFCFE" d="M343.953 4H156.657a6.346 6.346 0 0 0-3.294.9c-.963.587-1.688 1.416-2.076 2.373-.791 1.957-2.273 3.655-4.241 4.857-1.967 1.202-4.322 1.847-6.737 1.847-2.416 0-4.771-.645-6.738-1.847-1.968-1.202-3.45-2.9-4.241-4.857-.387-.953-1.11-1.78-2.068-2.366A6.348 6.348 0 0 0 123.983 4h-99.92c0 2.26-.52 4.498-1.528 6.586s-2.486 3.986-4.35 5.583c-1.862 1.598-4.074 2.866-6.508 3.73A22.975 22.975 0 0 1 4 21.21V126.79a23 23 0 0 1 7.677 1.309c2.434.865 4.646 2.132 6.509 3.731 1.863 1.598 3.34 3.495 4.349 5.583A15.112 15.112 0 0 1 24.062 144h99.921a6.348 6.348 0 0 0 3.294-.9c.963-.587 1.688-1.416 2.076-2.373.79-1.957 2.272-3.655 4.24-4.857 1.968-1.202 4.323-1.847 6.738-1.847s4.77.645 6.738 1.847c1.967 1.202 3.449 2.9 4.24 4.857.387.954 1.11 1.78 2.067 2.366a6.352 6.352 0 0 0 3.281.907h187.284c0-2.26.519-4.498 1.527-6.585 1.008-2.088 2.486-3.985 4.348-5.583 1.863-1.598 4.074-2.866 6.508-3.731a22.97 22.97 0 0 1 7.676-1.31V21.209c-5.318-.003-10.417-1.817-14.176-5.044-3.76-3.227-5.871-7.603-5.871-12.165ZM139.356 18.967a.728.728 0 0 1 .056-.334.822.822 0 0 1 .206-.288c.09-.083.2-.149.322-.194a1.107 1.107 0 0 1 .771 0 .985.985 0 0 1 .322.194c.091.083.161.181.206.288.045.107.064.22.056.334v9.646a.728.728 0 0 1-.056.334.822.822 0 0 1-.206.288.983.983 0 0 1-.322.194 1.112 1.112 0 0 1-.771 0 .973.973 0 0 1-.322-.194.822.822 0 0 1-.206-.288.728.728 0 0 1-.056-.334v-9.646Zm0 16.52a.728.728 0 0 1 .056-.335.82.82 0 0 1 .206-.288c.09-.083.2-.149.322-.194a1.109 1.109 0 0 1 .771 0 .985.985 0 0 1 .322.194.82.82 0 0 1 .206.288c.045.107.064.22.056.334v9.646a.753.753 0 0 1-.163.461.947.947 0 0 1-.434.306 1.12 1.12 0 0 1-.56.048 1.03 1.03 0 0 1-.496-.228.82.82 0 0 1-.212-.269.7.7 0 0 1-.074-.318v-9.646Zm0 16.518a.728.728 0 0 1 .056-.334.822.822 0 0 1 .206-.288c.09-.083.2-.149.322-.194a1.107 1.107 0 0 1 .771 0 .983.983 0 0 1 .322.194c.091.083.161.181.206.288.045.107.064.22.056.334v9.646a.752.752 0 0 1-.163.461.948.948 0 0 1-.434.306 1.12 1.12 0 0 1-.56.048 1.029 1.029 0 0 1-.496-.228.821.821 0 0 1-.212-.269.701.701 0 0 1-.074-.318v-9.646Zm0 16.52c0-.222.102-.433.284-.59a1.06 1.06 0 0 1 .687-.244c.128 0 .254.021.372.064a.976.976 0 0 1 .313.182c.09.077.161.169.21.27.048.1.073.208.073.318v9.645a.78.78 0 0 1-.285.586 1.058 1.058 0 0 1-.683.244 1.065 1.065 0 0 1-.683-.245.785.785 0 0 1-.288-.585v-9.645Zm0 16.519a.728.728 0 0 1 .056-.335.822.822 0 0 1 .206-.288c.09-.083.2-.149.322-.194a1.107 1.107 0 0 1 .771 0 .983.983 0 0 1 .322.194c.091.083.161.181.206.288.045.107.064.221.056.335v9.645a.753.753 0 0 1-.163.461.947.947 0 0 1-.434.306c-.177.063-.372.08-.56.048a1.029 1.029 0 0 1-.496-.228.821.821 0 0 1-.212-.269.701.701 0 0 1-.074-.318v-9.645Zm1.939 42.68a.78.78 0 0 1-.283.588 1.062 1.062 0 0 1-.685.245 1.069 1.069 0 0 1-.685-.246.787.787 0 0 1-.286-.587v-9.646a.728.728 0 0 1 .056-.334.823.823 0 0 1 .206-.288.97.97 0 0 1 .322-.194 1.11 1.11 0 0 1 .771 0 .98.98 0 0 1 .322.194.823.823 0 0 1 .206.288.728.728 0 0 1 .056.334v9.646Zm0-16.516a.75.75 0 0 1-.163.461.947.947 0 0 1-.434.307 1.13 1.13 0 0 1-.56.047 1.022 1.022 0 0 1-.496-.228l-.029-.025a.774.774 0 0 1-.257-.562v-9.645c0-.165.057-.326.163-.463a.963.963 0 0 1 .435-.307c.177-.063.372-.079.561-.048.188.032.361.111.497.227a.77.77 0 0 1 .279.591l.004 9.645Z"/></g><defs><filter id="a" width="368" height="148" x="0" y="0" color-interpolation-filters="sRGB" filterUnits="userSpaceOnUse"><feFlood flood-opacity="0" result="BackgroundImageFix"/><feColorMatrix in="SourceAlpha" result="hardAlpha" values="0 0 0 0 0 0 0 0 0 0 0 0 0 0 0 0 0 0 127 0"/><feOffset/><feGaussianBlur stdDeviation="2"/><feComposite in2="hardAlpha" operator="out"/><feColorMatrix values="0 0 0 0 0.29441 0 0 0 0 0.579167 0 0 0 0 0.376749 0 0 0 1 0"/><feBlend in2="BackgroundImageFix" result="effect1_dropShadow_278_2286"/><feBlend in="SourceGraphic" in2="effect1_dropShadow_278_2286" result="shape"/></filter></defs></svg>